<?xml version="1.0" standalone="no"?>
<!DOCTYPE svg PUBLIC "-//W3C//DTD SVG 20010904//EN"
 "http://www.w3.org/TR/2001/REC-SVG-20010904/DTD/svg10.dtd">
<svg version="1.0" xmlns="http://www.w3.org/2000/svg"
 width="501.000000pt" height="501.000000pt" viewBox="0 0 501.000000 501.000000"
 preserveAspectRatio="xMidYMid meet">
<metadata>
Created by potrace 1.16, written by Peter Selinger 2001-2019
</metadata>
<g transform="translate(0.000000,501.000000) scale(0.100000,-0.100000)"
fill="#000000" stroke="none">
<path d="M2250 4984 c-274 -38 -538 -128 -700 -237 -73 -50 -310 -250 -376
-319 -163 -169 -322 -385 -417 -567 -42 -81 -69 -115 -166 -216 -237 -244
-389 -493 -510 -833 -70 -197 -81 -245 -81 -355 0 -132 -3 -130 195 -142 223
-12 380 -87 473 -226 23 -35 50 -88 59 -119 22 -78 99 -227 180 -350 199 -301
474 -554 785 -719 227 -121 486 -190 828 -222 144 -13 547 -7 695 10 44 5 111
13 149 17 l68 7 -7 -24 c-10 -33 -54 -78 -92 -94 l-33 -14 0 -120 0 -120 55
-20 c71 -27 262 -65 430 -87 196 -26 690 -26 800 0 161 37 237 76 338 169 l47
45 0 125 0 126 -37 18 c-55 26 -115 92 -153 169 -48 99 -50 135 -8 220 93 186
208 526 208 617 0 15 5 27 10 27 6 0 10 80 10 220 0 140 -4 220 -10 220 -5 0
-10 11 -10 24 0 36 -49 224 -77 294 l-25 62 -118 0 -117 0 -6 -61 c-4 -52 -21
-93 -101 -256 -104 -210 -186 -343 -306 -492 -86 -106 -242 -262 -335 -332
-179 -137 -479 -302 -655 -359 -131 -43 -134 -42 -138 71 -4 139 6 129 -125
129 -61 0 -144 -7 -182 -15 -182 -38 -399 -6 -711 105 -283 101 -374 154 -553
325 -130 124 -286 337 -306 418 l-7 27 82 0 83 0 -8 258 c-7 274 -1 377 37
551 42 199 128 399 226 526 54 69 228 247 287 291 118 89 303 159 554 209 81
16 86 15 150 -4 94 -29 145 -75 170 -154 31 -100 49 -136 118 -240 119 -179
277 -316 413 -357 229 -69 765 -46 1225 52 219 46 272 66 319 119 48 52 59
101 54 244 -3 120 -3 121 -49 216 -56 115 -147 227 -324 397 -276 265 -553
452 -866 585 -165 71 -327 115 -559 154 -137 23 -733 28 -880 7z m712 -1064
c324 -71 622 -235 852 -468 l79 -80 -59 -8 c-117 -15 -393 -10 -476 9 -128 30
-264 135 -388 299 -57 75 -140 226 -140 254 0 19 28 17 132 -6z m-1757 -717
c-52 -189 -68 -318 -69 -553 -1 -113 2 -248 6 -300 l6 -95 -33 135 c-39 152
-81 376 -94 495 l-9 80 54 103 c45 88 162 267 170 260 1 -2 -13 -58 -31 -125z
m-290 -983 c74 -232 230 -461 442 -651 146 -132 292 -213 537 -298 330 -116
688 -149 926 -86 30 8 55 13 57 11 1 -1 -6 -20 -17 -41 -26 -52 -26 -115 1
-149 28 -35 90 -66 134 -66 190 0 574 173 893 402 29 21 52 34 52 28 0 -19
-236 -249 -316 -307 -148 -108 -230 -150 -330 -167 -219 -36 -283 -41 -589
-41 -253 0 -330 3 -420 18 -138 23 -277 58 -391 98 -302 105 -695 399 -810
606 -86 152 -151 336 -178 503 -14 81 -30 256 -22 235 2 -5 16 -48 31 -95z"/>
<path d="M1340 688 l1 -113 93 -84 c256 -229 545 -400 768 -453 51 -13 95 -26
96 -30 2 -5 60 -8 128 -8 141 0 133 -4 201 90 56 77 134 147 196 175 28 14 58
25 65 25 10 0 12 28 10 123 l-3 122 -85 2 c-130 4 -473 32 -590 49 -132 19
-323 64 -420 99 -85 31 -205 89 -215 105 -4 6 -55 10 -126 10 l-119 0 0 -112z"/>
</g>
</svg>
