<?xml version="1.0" encoding="UTF-8"?>
<svg xmlns="http://www.w3.org/2000/svg" xmlns:xlink="http://www.w3.org/1999/xlink" width="360pt" height="360pt" viewBox="0 0 360 360" version="1.1">
<g id="surface23112">
<path style=" stroke:none;fill-rule:nonzero;fill:rgb(9.019608%,9.019608%,9.411765%);fill-opacity:1;" d="M 116.25 37.5 C 89.460938 37.5 67.5 59.460938 67.5 86.25 L 67.5 201.855469 C 67.441406 205.914062 69.574219 209.6875 73.078125 211.730469 C 76.582031 213.777344 80.917969 213.777344 84.421875 211.730469 C 87.925781 209.6875 90.058594 205.914062 90 201.855469 L 90 86.25 C 90 71.625 101.625 60 116.25 60 L 272.300781 60 C 271.007812 63.558594 270 67.269531 270 71.25 L 270 91.902344 C 269.800781 93.113281 269.800781 94.34375 270 95.550781 L 270 230.417969 C 269.941406 234.476562 272.074219 238.25 275.578125 240.296875 C 279.082031 242.339844 283.417969 242.339844 286.921875 240.296875 C 290.425781 238.25 292.558594 234.476562 292.5 230.417969 L 292.5 105 L 318.75 105 C 328.976562 105 337.5 96.476562 337.5 86.25 L 337.5 71.25 C 337.5 53.347656 323.203125 38.628906 305.523438 37.675781 C 304.9375 37.570312 304.34375 37.511719 303.75 37.5 Z M 303.75 60 C 310.097656 60 315 64.902344 315 71.25 L 315 82.5 L 292.5 82.5 L 292.5 71.25 C 292.5 64.902344 297.402344 60 303.75 60 Z M 131.25 97.5 C 127.191406 97.441406 123.417969 99.574219 121.375 103.078125 C 119.328125 106.582031 119.328125 110.917969 121.375 114.421875 C 123.417969 117.925781 127.191406 120.058594 131.25 120 L 228.75 120 C 232.808594 120.058594 236.582031 117.925781 238.625 114.421875 C 240.671875 110.917969 240.671875 106.582031 238.625 103.078125 C 236.582031 99.574219 232.808594 97.441406 228.75 97.5 Z M 131.25 150 C 127.191406 149.941406 123.417969 152.074219 121.375 155.578125 C 119.328125 159.082031 119.328125 163.417969 121.375 166.921875 C 123.417969 170.425781 127.191406 172.558594 131.25 172.5 L 228.75 172.5 C 232.808594 172.558594 236.582031 170.425781 238.625 166.921875 C 240.671875 163.417969 240.671875 159.082031 238.625 155.578125 C 236.582031 152.074219 232.808594 149.941406 228.75 150 Z M 131.25 202.5 C 127.191406 202.441406 123.417969 204.574219 121.375 208.078125 C 119.328125 211.582031 119.328125 215.917969 121.375 219.421875 C 123.417969 222.925781 127.191406 225.058594 131.25 225 L 213.75 225 C 217.808594 225.058594 221.582031 222.925781 223.625 219.421875 C 225.671875 215.917969 225.671875 211.582031 223.625 208.078125 C 221.582031 204.574219 217.808594 202.441406 213.75 202.5 Z M 41.25 255 C 31.023438 255 22.5 263.523438 22.5 273.75 L 22.5 288.75 C 22.5 307.257812 37.742188 322.5 56.25 322.5 L 258.75 322.5 C 259.128906 322.496094 259.503906 322.46875 259.878906 322.425781 C 260.621094 322.339844 261.351562 322.175781 262.058594 321.941406 C 262.292969 321.863281 262.523438 321.773438 262.75 321.679688 C 279.316406 319.59375 292.5 305.839844 292.5 288.75 L 292.5 278.335938 C 292.558594 274.277344 290.425781 270.503906 286.921875 268.457031 C 283.417969 266.414062 279.082031 266.414062 275.578125 268.457031 C 272.074219 270.503906 269.941406 274.277344 270 278.335938 L 270 288.75 C 270 295.097656 265.097656 300 258.75 300 C 252.402344 300 247.5 295.097656 247.5 288.75 L 247.5 273.75 C 247.5 263.523438 238.976562 255 228.75 255 Z M 45 277.5 L 225 277.5 L 225 288.75 C 225 292.730469 226.007812 296.441406 227.300781 300 L 56.25 300 C 49.902344 300 45 295.097656 45 288.75 Z M 45 277.5 "/>
</g>
</svg>
